<svg xmlns="http://www.w3.org/2000/svg" fill="none" viewBox="0 0 48 48"><path fill="#fff" d="M42.629 21.06a4.949 4.949 0 0 1-1.424 3.943c-.035.035-.07.07-.093.105a3.012 3.012 0 0 1-.525.409 5.054 5.054 0 0 1-.595.361c-.047.035-.105.059-.152.082a5.038 5.038 0 0 1-.373.152v10.861c0 3.139-2.567 5.705-5.705 5.705h-19.6a5.44 5.44 0 0 1-1.318-.163c-.14-.035-.339-.082-.584-.163-.023 0-.035-.024-.058-.035a4.753 4.753 0 0 1-.7-.315l-.058-.035c-.059-.035-.117-.059-.164-.094-.233-.14-.408-.28-.525-.361l-.046-.035a3.708 3.708 0 0 1-.222-.175c-.093-.07-.175-.152-.257-.222a4.676 4.676 0 0 1-.478-.525 2.242 2.242 0 0 0-.152-.198 5.681 5.681 0 0 1-1.131-3.395V26.1a1.714 1.714 0 0 1-.257-.117l-.093-.035-.035-.035a5.902 5.902 0 0 1-.829-.501 3.72 3.72 0 0 1-.221-.175 2.482 2.482 0 0 1-.35-.35l-.094-.094c-.116-.105-.221-.233-.326-.361-1.54-2.089-1.12-5.122.945-6.802l2.088-1.762v-4.655a4.327 4.327 0 0 1 4.328-4.328h3.232c.852 0 1.657.257 2.333.688l1.027-.851a5.822 5.822 0 0 1 7.572 0L40.89 17.7a4.817 4.817 0 0 1 1.774 3.313l-.035.047Z"/><path fill="#F2AE29" d="M36.504 23.02v13.965c0 1.517-1.248 2.765-2.753 2.765h-5.88V29.413a1.38 1.38 0 0 0-1.377-1.376H21.43c-.735 0-1.376.618-1.376 1.376V39.75h-5.892a2.766 2.766 0 0 1-2.753-2.753V23.032l.023-.024 6.545-5.46 4.293-3.628c.164-.128.327-.233.514-.315.361-.198.77-.28 1.19-.28a2.65 2.65 0 0 1 1.692.595l10.838 9.077v.023Z"/><path fill="#E9B753" d="M27.882 29.425v10.337h-7.805V29.425c0-.758.63-1.377 1.377-1.377h5.052c.77 0 1.376.619 1.376 1.377Z"/><path fill="#773D0D" d="M27.882 29.425v10.337h-7.805V29.425c0-.758.63-1.377 1.377-1.377h5.052c.77 0 1.376.619 1.376 1.377Z"/><path fill="#CC8500" d="M20.066 38.152v1.598h-5.892c-.152 0-.315 0-.455-.047-.058 0-.105 0-.163-.023-.07-.023-.129-.023-.199-.058a2.654 2.654 0 0 1-1.668-1.47h8.377Z"/><path fill="#5E2B01" d="M27.87 38.152h-7.805v1.598h7.805v-1.598Z"/><path fill="#177A80" d="M23.962 24.607a3.173 3.173 0 1 0 0-6.347 3.173 3.173 0 0 0 0 6.347Z"/><path fill="#CC8500" d="M36.504 23.02v13.965a2.778 2.778 0 0 1-2.765 2.765H27.87v-1.61h5.634c.77 0 1.389-.618 1.389-1.388v-12.32c0-.409-.187-.805-.502-1.074L22.76 13.617c.362-.199.77-.28 1.19-.28a2.65 2.65 0 0 1 1.692.595l10.838 9.076.024.012Z"/><path fill="#E41448" d="M39.245 22.787c-.163.221-.396.385-.653.513a2.054 2.054 0 0 1-.84.187c-.292 0-.607-.082-.887-.21-.093-.059-.233-.14-.35-.245L25.69 13.955a2.717 2.717 0 0 0-3.407-.012l-4.293 3.629-6.534 5.448-.023.023c-.117.105-.245.175-.362.245-.256.117-.56.199-.863.199-.105 0-.268 0-.385-.035l-.28-.07-.14-.07a2.064 2.064 0 0 1-.513-.339l-.257-.268c-.607-.805-.42-2.065.443-2.777l3.15-2.66v-6.02a1.38 1.38 0 0 1 1.377-1.376h3.232c.758 0 1.376.618 1.376 1.388v.992l.094-.082 3.78-3.162a2.926 2.926 0 0 1 3.768 0l13.16 11.025c.84.689.933 1.925.233 2.754Z"/><path fill="#BF0635" d="M39.012 23.032a1.561 1.561 0 0 1-.42.256c-.268.129-.56.187-.863.187-.303 0-.595-.07-.875-.198a1.469 1.469 0 0 1-.338-.234l-10.839-9.088a2.65 2.65 0 0 0-1.692-.595c-.606 0-1.236.198-1.703.595l-4.293 3.628-6.545 5.46-.024.024c-.116.093-.256.175-.35.233a2.045 2.045 0 0 1-.875.198c-.093 0-.256 0-.373-.035l-.28-.058-.14-.07c-.187-.07-.327-.187-.467-.292L22.247 11.89c.467-.397 1.073-.595 1.692-.595.618 0 1.225.198 1.703.607l13.37 11.153v-.023ZM18.199 11.26v.992l-.514.42-1.096.921v-2.345c0-.77-.63-1.388-1.388-1.388h1.61c.758 0 1.376.618 1.376 1.388l.012.012Z"/></svg>
