<svg xmlns="http://www.w3.org/2000/svg" data-name="Layer 1" viewBox="0 0 48 48"><path fill="#fff" d="M17.5 24.4c-1 0-2 .4-2.7 1.1l-1.9 1.9c-.6-.4-1.2-.5-1.9-.5-1.8 0-3.2 1.3-3.6 2.9 0 .1 0 .2-.1.4l-.6 7.2v.2c0 2.1 1.6 3.7 3.6 3.7h.3l6.8-.6h.3c1.4-.1 2.7-1 3.2-2.4.4-1.1.2-2.2-.3-3.2l1.4-1.4.4-.4c.3-.3.6-.7.8-1.1.1-.2.1-.3.2-.5 0-.1 0-.2.1-.3 0-.1.1-.3.1-.4V29.8c0-.2-.1-.5-.2-.7 0-.1-.1-.1-.1-.2v-.1c-.1-.2-.2-.4-.3-.5-.1-.2-.2-.3-.4-.4l-2.2-2.2c-.8-.9-1.8-1.3-2.9-1.3ZM37.7 6.8h-.3l-6.8.6h-.3c-1.4.1-2.7 1-3.2 2.4-.4 1.1-.2 2.2.3 3.2L26 14.4l-.4.4c-.3.3-.6.7-.8 1.1-.1.2-.1.3-.2.5 0 .1 0 .2-.1.3 0 .1-.1.3-.1.4V18.3c0 .2.1.4.2.7q0 .1.1.2v.1c.1.2.2.4.3.5.1.2.2.3.4.4l2.2 2.2c.7.7 1.7 1.1 2.7 1.1s2-.4 2.7-1.1l1.9-1.9c.6.4 1.2.5 1.9.5 1.7 0 3.2-1.3 3.6-2.9 0-.1 0-.2.1-.4l.7-7.2v-.2c.2-1.9-1.5-3.5-3.5-3.5ZM30.4 24.3c-.2 0-.5 0-.7.1h-.1c-.2 0-.5.1-.7.2q-.1 0-.2.1h-.1c-.2.1-.4.2-.5.3-.2.1-.3.2-.4.4l-2.2 2.2c-.7.7-1.1 1.7-1.1 2.7s.4 2 1.1 2.7l1.9 1.9c-.6.9-.7 2.1-.3 3.2.4 1.2 1.5 2.1 2.7 2.3.1 0 .2 0 .4.1l7.2.7h.2c1.1 0 2-.4 2.7-1.2.7-.7 1-1.7 1-2.7v-.1l-.6-6.8v-.3c-.1-1.9-1.7-3.4-3.6-3.4-.7 0-1.3.2-1.9.5l-1.4-1.4-.4-.4c-.3-.3-.7-.6-1.1-.8-.2-.1-.3-.1-.5-.2-.1 0-.2 0-.3-.1-.1 0-.3-.1-.4-.1-.4.1-.6.1-.7.1ZM10.3 6.7c-1.1 0-2 .4-2.7 1.2-.7.7-1 1.7-1 2.7v.1l.6 6.8v.3c.1 1.9 1.7 3.4 3.6 3.4.7 0 1.3-.2 1.9-.5l1.4 1.4.4.4c.3.3.7.6 1.1.8.2.1.3.1.5.2.1 0 .2 0 .3.1.1 0 .3.1.4.1h.4c.2 0 .5 0 .7-.1h.1c.2 0 .5-.1.7-.2q.1 0 .2-.1h.1c.2-.1.4-.2.5-.3.2-.1.3-.2.4-.4l2.2-2.2c1.5-1.5 1.5-4 0-5.5L20.2 13c.6-.9.7-2.1.3-3.2-.4-1.2-1.5-2.1-2.7-2.3-.1 0-.2 0-.4-.1l-7.2-.7h.1Z"/><path fill="#0069e4" d="M16.7 27.5 13.2 31c-.1.1-.3.1-.4 0l-1.1-1.1c-.5-.5-1.5-.2-1.5.6l-.7 7.2c0 .5.4.9 1 .9l6.8-.6h.4c.8 0 1.1-1 .6-1.5l-.3-.4-.8-.8c-.1-.1-.1-.3 0-.5l3.1-3.1.4-.4c.1-.1.2-.2.2-.3v-1s0-.1-.1-.2c0-.1-.1-.1-.1-.2l-2.2-2.2c-.5-.4-1.2-.4-1.8.1Z"/><path fill="#01499d" d="m18.4 27.5 2.2 2.2s.1.1.1.2 0 .1.1.2v1c0 .1-.1.2-.2.3l-.4.4-2-2c-.4-.4-1.2-.4-1.6 0l-1.7 1.7c-.4.4-1.1.4-1.6 0l-.5-.5c.1.1.3.1.4 0l3.5-3.5c.5-.5 1.2-.5 1.7 0Z"/><path fill="#0069e4" d="m31.3 20.6 3.5-3.5c.1-.1.3-.1.4 0l1.1 1.1c.5.5 1.5.2 1.5-.6l.7-7.2c0-.5-.4-.9-1-.9l-6.8.6h-.4c-.8 0-1.1 1-.6 1.5l.3.3.8.8c.1.1.1.3 0 .5l-3.1 3.1-.4.4c-.1.1-.2.2-.2.3v1s0 .1.1.2c0 .1.1.1.1.2l2.2 2.2c.6.5 1.3.5 1.8 0Z"/><path fill="#01499d" d="m29.7 20.6-2.2-2.2s-.1-.1-.1-.2 0-.1-.1-.2v-1c0-.1.1-.2.2-.3l.4-.4 2 2c.4.4 1.2.4 1.6 0l1.7-1.7c.4-.4 1.1-.4 1.6 0l.5.5c-.1-.1-.3-.1-.4 0l-3.5 3.5c-.5.5-1.3.5-1.7 0Z"/><path fill="#0069e4" d="M20.5 16.7 17 13.2c-.1-.1-.1-.3 0-.4l1.1-1.1c.5-.5.2-1.5-.6-1.5l-7.2-.7c-.5 0-.9.4-.9 1l.6 6.8v.4c0 .8 1 1.1 1.5.6l.3-.3.8-.8c.1-.1.3-.1.5 0l3.1 3.1.4.4c.1.1.2.2.3.2h1s.1 0 .2-.1c.1 0 .1-.1.2-.2l2.2-2.2c.5-.5.5-1.3 0-1.7Z"/><path fill="#01499d" d="m20.5 18.3-2.2 2.2s-.1.1-.2.1c0 0-.1.1-.2.1h-1c-.1 0-.2-.1-.3-.2l-.4-.4 2-2c.4-.4.4-1.2 0-1.6l-1.7-1.7c-.4-.4-.4-1.1 0-1.6l.5-.5c-.1.1-.1.3 0 .4l3.5 3.5c.5.5.5 1.2 0 1.7Z"/><path fill="#0069e4" d="m27.4 31.2 3.5 3.5c.1.1.1.3 0 .4l-1.1 1.1c-.5.5-.2 1.5.6 1.5l7.2.7c.5 0 .9-.4.9-1l-.6-6.8v-.4c0-.8-1-1.1-1.5-.6l-.4.4-.8.8c-.1.1-.3.1-.5 0l-3.1-3.1-.4-.4c-.1-.1-.2-.2-.3-.2h-1s-.1 0-.2.1c-.1 0-.1.1-.2.2l-2.2 2.2c-.4.4-.4 1.1.1 1.6Z"/><path fill="#01499d" d="m27.4 29.6 2.2-2.2s.1-.1.2-.1c0 0 .1-.1.2-.1h1c.1 0 .2.1.3.2l.4.4-2 2c-.4.4-.4 1.2 0 1.6l1.7 1.7c.4.4.4 1.1 0 1.6l-.5.5c.1-.1.1-.3 0-.4l-3.5-3.5c-.5-.5-.5-1.3 0-1.7Z"/></svg>
