<?xml version="1.0" encoding="UTF-8"?>
<svg width="48" height="48" id="Layer_1" data-name="Layer 1" xmlns="http://www.w3.org/2000/svg" viewBox="0 0 48 48">
  <defs>
    <style>
      .cls-1 {
        fill: none;
      }

      .cls-2 {
        fill: #cdeaff;
      }

      .cls-3 {
        fill: #abd4f2;
      }

      .cls-4 {
        fill: #01499d;
      }

      .cls-5 {
        fill: #fff;
      }

      .cls-6 {
        fill: #0069e4;
      }
    </style>
  </defs>
  <circle class="cls-5" cx="24" cy="24" r="24"/>
  <circle class="cls-6" cx="24" cy="24" r="20"/>
  <path class="cls-4" d="M36.56,8.44c2.77,3.43,4.44,7.8,4.44,12.56,0,11.05-8.95,20-20,20-4.76,0-9.12-1.67-12.56-4.44,3.67,4.54,9.27,7.44,15.56,7.44,11.05,0,20-8.95,20-20,0-6.29-2.91-11.89-7.44-15.56Z"/>
  <circle class="cls-1" cx="24" cy="24" r="20"/>
  <path class="cls-1" d="M24,5c-2.08,0-4.73,3.66-6.1,10h12.19c-1.37-6.34-4.02-10-6.1-10Z"/>
  <path class="cls-1" d="M6.16,33c2.35,4.65,6.45,8.25,11.44,9.94-1.69-2.44-3-5.86-3.79-9.94h-7.66Z"/>
  <path class="cls-1" d="M24,43c2.08,0,4.73-3.66,6.1-10h-12.19c1.37,6.34,4.02,10,6.1,10Z"/>
  <path class="cls-1" d="M17.27,19c-.17,1.56-.27,3.22-.27,5s.1,3.44.27,5h13.46c.17-1.56.27-3.22.27-5s-.1-3.44-.27-5h-13.46Z"/>
  <path class="cls-1" d="M17.6,5.06c-4.99,1.69-9.09,5.29-11.44,9.94h7.66c.78-4.08,2.1-7.49,3.79-9.94Z"/>
  <path class="cls-1" d="M13,24c0-1.73.08-3.4.24-5H4.66c-.41,1.6-.66,3.27-.66,5s.24,3.4.66,5h8.59c-.16-1.6-.24-3.27-.24-5Z"/>
  <path class="cls-1" d="M34.19,33c-.78,4.08-2.1,7.49-3.79,9.94,4.99-1.69,9.09-5.29,11.44-9.94h-7.66Z"/>
  <path class="cls-1" d="M41.84,15c-2.35-4.65-6.45-8.25-11.44-9.94,1.69,2.44,3,5.86,3.79,9.94h7.66Z"/>
  <path class="cls-1" d="M35,24c0,1.73-.08,3.4-.24,5h8.59c.41-1.6.66-3.27.66-5s-.24-3.4-.66-5h-8.59c.16,1.6.24,3.27.24,5Z"/>
  <path class="cls-2" d="M41.84,33c.64-1.26,1.14-2.6,1.5-4h-8.59c.16-1.6.24-3.27.24-5s-.08-3.4-.24-5h8.59c-.36-1.4-.86-2.74-1.5-4h-7.66c-.78-4.08-2.1-7.49-3.79-9.94-2.01-.68-4.16-1.06-6.4-1.06s-4.39.38-6.4,1.06c-1.69,2.44-3,5.86-3.79,9.94h-7.66c-.64,1.26-1.14,2.6-1.5,4h8.59c-.16,1.6-.24,3.27-.24,5s.08,3.4.24,5H4.66c.36,1.4.86,2.74,1.5,4h7.66c.78,4.08,2.1,7.49,3.79,9.94,2.01.68,4.16,1.06,6.4,1.06s4.39-.38,6.4-1.06c1.69-2.44,3-5.86,3.79-9.94h7.66ZM24,5c2.08,0,4.73,3.66,6.1,10h-12.19c1.37-6.34,4.02-10,6.1-10ZM24,43c-2.08,0-4.73-3.66-6.1-10h12.19c-1.37,6.34-4.02,10-6.1,10ZM30.73,29h-13.46c-.17-1.56-.27-3.22-.27-5s.1-3.44.27-5h13.46c.17,1.56.27,3.22.27,5s-.1,3.44-.27,5Z"/>
  <g>
    <path class="cls-3" d="M26.68,43.8c.29-.04.58-.08.86-.13.37-.07.74-.15,1.11-.23.16-.04.31-.08.46-.12.43-.12.86-.24,1.28-.38,1.13-1.64,2.09-3.72,2.84-6.14-1.68,1.3-3.57,2.34-5.61,3.06-1.18,2.04-2.49,3.15-3.63,3.15-.9,0-1.92-.7-2.89-2.01-.04,0-.07,0-.11,0-1.67,0-3.29-.22-4.85-.6.45.93.93,1.79,1.45,2.54,1.46.5,3,.83,4.6.98.09,0,.18.02.27.02.51.04,1.02.07,1.53.07.62,0,1.23-.04,1.83-.09.29-.03.57-.07.85-.11Z"/>
    <path class="cls-3" d="M39.32,29c-.63,1.43-1.42,2.77-2.35,4h4.87s0,0,0,0c.32-.63.6-1.27.85-1.94,0,0,0-.02.01-.03.25-.66.46-1.34.64-2.03,0,0,0,0,0,0h-4.02Z"/>
    <path class="cls-3" d="M40.89,19h2.45c-.36-1.4-.86-2.74-1.5-4h-1.78c.41,1.28.69,2.62.83,4Z"/>
  </g>
</svg>
